<svg width="81" height="82" viewBox="0 0 81 82" fill="none" xmlns="http://www.w3.org/2000/svg">
<path d="M6.92047 34.2026L33.3642 7.26818C37.2838 3.27588 43.7162 3.27588 47.6358 7.26819L74.0795 34.2027C77.9152 38.1095 77.896 44.3745 74.0364 48.2578L47.5927 74.8638C43.6825 78.7979 37.3175 78.798 33.4073 74.8638L6.96357 48.2578C3.10398 44.3746 3.08477 38.1095 6.92047 34.2026Z" fill="white"/>
<path d="M52.537 34.86C52.064 34.6 51.41 34.607 50.927 34.336C49.985 33.802 49.742 33.02 49.702 31.861C47.642 29.647 44.564 27.686 40.278 27.748C39.116 27.765 38.022 27.713 37.12 28.183C36.862 28.537 37.116 28.699 37.408 28.783C37.118 28.92 36.716 28.929 36.782 29.479C39.502 29.096 44.257 30.103 43.898 32.445C43.818 32.965 43.163 33.521 42.718 34.008C41.456 35.39 40.12 36.458 38.958 37.675L39.294 38.011C40.036 37.491 40.74 37.226 41.398 37.226C42.105 37.226 42.518 37.523 42.674 37.659C43.249 37.041 43.84 36.415 44.514 35.806C45.001 35.362 45.56 34.706 46.079 34.628L47.027 34.528C48.183 34.574 48.964 34.818 49.497 35.758C49.767 36.24 49.76 36.898 50.019 37.372C50.194 37.697 50.956 38.592 51.335 38.602C51.629 38.61 51.938 38.402 52.235 38.112L53.267 37.077C53.557 36.783 53.767 36.477 53.759 36.181C53.753 35.801 52.859 35.036 52.536 34.861L52.537 34.86ZM37.02 40.352L36.28 39.612C33.14 42.254 29.76 45.35 26.75 48.2C26.276 48.644 25.297 49.222 25.243 49.74C25.16 50.52 26.193 51.205 26.749 51.74C27.304 52.273 27.959 53.342 28.742 53.25C29.252 53.207 29.837 52.22 30.286 51.748C32.6297 49.2904 34.9245 46.7866 37.169 44.238C36.857 43.868 36.671 43.643 36.671 43.643C36.534 43.451 35.778 42.273 37.021 40.353L37.02 40.352ZM44.64 40.642C44.274 40.324 43.174 40.785 42.863 40.52C42.553 40.255 43.033 39.262 42.803 39.066L42.033 38.42C42.033 38.42 41.17 37.59 39.22 39.348L31.44 31.568C31.045 31.173 31.203 29.746 31.203 29.746L27.517 27.646L26.623 28.541L28.723 32.228C28.723 32.228 30.151 32.07 30.547 32.465L38.339 40.258C36.789 42.088 37.443 43.01 37.443 43.01C37.443 43.01 37.681 43.297 38.089 43.78C38.285 44.01 39.277 43.53 39.544 43.84C39.808 44.153 39.348 45.25 39.664 45.618C42.33 48.682 46.59 53.354 47.789 53.354C48.681 53.354 49.809 52.63 50.737 51.714C51.662 50.797 52.377 49.659 52.377 48.767C52.377 47.567 47.703 43.309 44.639 40.643L44.64 40.642Z" fill="#17465E"/>
</svg>
