<svg width="89" height="89" viewBox="0 0 89 89" fill="none" xmlns="http://www.w3.org/2000/svg">
<path d="M70.4583 33.3746C70.46 28.9057 69.3079 24.5121 67.1136 20.619C64.9192 16.7259 61.757 13.4653 57.933 11.1527C54.109 8.84012 49.7527 7.55393 45.2859 7.41864C40.819 7.28335 36.3929 8.30354 32.4359 10.3805C28.4789 12.4574 25.1252 15.5207 22.6993 19.2738C20.2734 23.027 18.8575 27.3428 18.5887 31.8036C18.3199 36.2644 19.2072 40.7191 21.1649 44.7364C23.1225 48.7537 26.0842 52.1976 29.7631 54.7346L18.5417 74.1663L26.9077 74.5112L31.3873 81.583L44.2404 59.3181C44.3294 59.3181 44.411 59.333 44.5 59.333C44.589 59.333 44.6706 59.3218 44.7596 59.3181L57.6127 81.583L62.1813 74.6632L70.4583 74.1663L59.2369 54.7346C62.699 52.3509 65.5295 49.161 67.4844 45.4399C69.4393 41.7187 70.4599 37.578 70.4583 33.3746ZM25.9583 33.3746C25.9583 29.7074 27.0458 26.1226 29.0832 23.0734C31.1205 20.0243 34.0164 17.6477 37.4044 16.2444C40.7925 14.841 44.5206 14.4738 48.1173 15.1892C51.714 15.9047 55.0178 17.6706 57.6109 20.2637C60.204 22.8568 61.97 26.1606 62.6854 29.7573C63.4008 33.3541 63.0336 37.0822 61.6303 40.4702C60.2269 43.8583 57.8504 46.7541 54.8012 48.7915C51.752 50.8289 48.1672 51.9163 44.5 51.9163C39.5824 51.9163 34.8663 49.9628 31.3891 46.4856C27.9118 43.0083 25.9583 38.2922 25.9583 33.3746V33.3746Z" fill="white"/>
<path d="M44.5 44.5C50.6442 44.5 55.625 39.5192 55.625 33.375C55.625 27.2308 50.6442 22.25 44.5 22.25C38.3558 22.25 33.375 27.2308 33.375 33.375C33.375 39.5192 38.3558 44.5 44.5 44.5Z" fill="white"/>
</svg>
